# xmcd
#
# Track frame offsets:
#	150
#	17072
#	35315
#	55614
#	76478
#	92370
#	106120
#	119900
#	133779
#	154006
#
# Disc length: 2486 seconds
#
# Revision: 1
# Processed by: cddbd v1.5.2PL0 Copyright (c) Steve Scherf et al.
# Submitted via: audiograbber 1.83.01
#
DISCID=7409b40a
DTITLE=Chicago - Collector's Edition [CD2]
DYEAR=2009
DGENRE=Rock
TTITLE0=Just You 'N' Me
TTITLE1=Call On Me
TTITLE2=(I've Been) Searchin' So Long
TTITLE3=Wishing You Were Here
TTITLE4=Old Days
TTITLE5=Harry Truman
TTITLE6=Another Rainy Day In New York City
TTITLE7=Baby, What A Big Surprise
TTITLE8=Brand New Love Affair (Part I and II)
TTITLE9=Dialogue (Part I and II)
EXTD=
EXTT0=
EXTT1=
EXTT2=
EXTT3=
EXTT4=
EXTT5=
EXTT6=
EXTT7=
EXTT8=
EXTT9=
PLAYORDER=
